<?xml version="1.0" standalone="no"?>
<!DOCTYPE svg PUBLIC "-//W3C//DTD SVG 20010904//EN"
 "http://www.w3.org/TR/2001/REC-SVG-20010904/DTD/svg10.dtd">
<svg version="1.0" xmlns="http://www.w3.org/2000/svg"
 width="225.000000pt" height="225.000000pt" viewBox="0 0 225.000000 225.000000"
 preserveAspectRatio="xMidYMid meet">
<metadata>
Created by potrace 1.11, written by Peter Selinger 2001-2013
</metadata>
<g transform="translate(0.000000,225.000000) scale(0.100000,-0.100000)"
fill="#000000" stroke="none">
<path d="M606 1975 c-274 -101 -503 -189 -507 -197 -5 -7 -9 -293 -9 -635 l0
-623 23 -14 c12 -8 245 -105 519 -216 l496 -202 494 202 c271 111 503 208 516
216 l22 14 0 623 c0 342 -4 628 -9 635 -8 14 -1014 383 -1035 381 -6 -1 -236
-84 -510 -184z m472 -486 l-3 -561 -447 -162 -448 -163 0 561 0 562 442 161
c244 89 446 162 451 162 4 1 6 -251 5 -560z m558 394 l434 -157 0 -562 0 -561
-112 41 -113 42 -5 409 -5 410 -210 77 c-115 43 -219 78 -230 78 -44 0 -45 -5
-45 -407 0 -211 -4 -383 -8 -383 -4 0 -44 13 -88 29 l-79 29 -3 562 c-2 507
-1 562 13 556 9 -3 212 -77 451 -163z m57 -419 l67 -26 0 -359 c0 -197 -3
-359 -7 -359 -5 0 -75 25 -157 55 -82 30 -151 55 -153 55 -2 0 -3 164 -3 364
l0 364 93 -35 c50 -19 122 -45 160 -59z m-136 -766 c232 -84 423 -156 423
-159 0 -7 -834 -349 -852 -349 -7 0 -204 77 -437 172 -289 118 -419 175 -409
181 20 13 820 305 838 306 8 1 204 -68 437 -151z"/>
<path d="M680 1599 c-80 -32 -173 -71 -207 -85 l-63 -26 0 -254 c0 -240 1
-254 19 -264 16 -8 63 7 238 76 119 47 221 90 225 97 13 21 10 491 -4 505 -21
21 -59 12 -208 -49z m130 -226 l-1 -178 -147 -57 c-82 -32 -153 -58 -160 -58
-9 0 -12 46 -12 174 l0 174 148 60 c81 33 153 61 160 61 9 1 12 -41 12 -176z"/>
</g>
</svg>
